bicep_curl
version=1
nRows=318
nColumns=3
inDegrees=yes

# SIMM Motion File Header:
name bicep_curl
datacolumns 3
datarows 318
otherdata 1
range 0.0000 0.3170
endheader
time	/jointset/r_shoulder/r_shoulder_elev/value	/jointset/r_elbow/r_elbow_flex/value
0.0000	0.0000	28.8400
0.0010	0.0000	28.9628
0.0020	0.0000	29.0860
0.0030	0.0000	29.2097
0.0040	0.0000	29.3338
0.0050	0.0000	29.4584
0.0060	0.0000	29.5835
0.0070	0.0000	29.7091
0.0080	0.0000	29.8351
0.0090	0.0000	29.9615
0.0100	0.0000	30.0885
0.0110	0.0000	30.2159
0.0120	0.0000	30.3438
0.0130	0.0000	30.4721
0.0140	0.0000	30.6009
0.0150	0.0000	30.7302
0.0160	0.0000	30.8599
0.0170	0.0000	30.9901
0.0180	0.0000	31.1208
0.0190	0.0000	31.2519
0.0200	0.0000	31.3835
0.0210	0.0000	31.5155
0.0220	0.0000	31.6481
0.0230	0.0000	31.7811
0.0240	0.0000	31.9145
0.0250	0.0000	32.0484
0.0260	0.0000	32.1828
0.0270	0.0000	32.3177
0.0280	0.0000	32.4530
0.0290	0.0000	32.5887
0.0300	0.0000	32.7250
0.0310	0.0000	32.8617
0.0320	0.0000	32.9989
0.0330	0.0000	33.1365
0.0340	0.0000	33.2746
0.0350	0.0000	33.4132
0.0360	0.0000	33.5522
0.0370	0.0000	33.6917
0.0380	0.0000	33.8317
0.0390	0.0000	33.9721
0.0400	0.0000	34.1130
0.0410	0.0000	34.2544
0.0420	0.0000	34.3962
0.0430	0.0000	34.5385
0.0440	0.0000	34.6812
0.0450	0.0000	34.8245
0.0460	0.0000	34.9681
0.0470	0.0000	35.1123
0.0480	0.0000	35.2569
0.0490	0.0000	35.4020
0.0500	0.0000	35.5475
0.0510	0.0000	35.6935
0.0520	0.0000	35.8400
0.0530	0.0000	35.9869
0.0540	0.0000	36.1344
0.0550	0.0000	36.2822
0.0560	0.0000	36.4306
0.0570	0.0000	36.5794
0.0580	0.0000	36.7286
0.0590	0.0000	36.8784
0.0600	0.0000	37.0286
0.0610	0.0000	37.1792
0.0620	0.0000	37.3303
0.0630	0.0000	37.4819
0.0640	0.0000	37.6340
0.0650	0.0000	37.7865
0.0660	0.0000	37.9395
0.0670	0.0000	38.0929
0.0680	0.0000	38.2469
0.0690	0.0000	38.4012
0.0700	0.0000	38.5561
0.0710	0.0000	38.7114
0.0720	0.0000	38.8672
0.0730	0.0000	39.0234
0.0740	0.0000	39.1801
0.0750	0.0000	39.3373
0.0760	0.0000	39.4949
0.0770	0.0000	39.6530
0.0780	0.0000	39.8116
0.0790	0.0000	39.9706
0.0800	0.0000	40.1301
0.0810	0.0000	40.2901
0.0820	0.0000	40.4505
0.0830	0.0000	40.6114
0.0840	0.0000	40.7728
0.0850	0.0000	40.9346
0.0860	0.0000	41.0969
0.0870	0.0000	41.2596
0.0880	0.0000	41.4229
0.0890	0.0000	41.5865
0.0900	0.0000	41.7507
0.0910	0.0000	41.9153
0.0920	0.0000	42.0804
0.0930	0.0000	42.2459
0.0940	0.0000	42.4119
0.0950	0.0000	42.5784
0.0960	0.0000	42.7453
0.0970	0.0000	42.9127
0.0980	0.0000	43.0806
0.0990	0.0000	43.2489
0.1000	0.0000	43.4177
0.1010	0.0000	43.5870
0.1020	0.0000	43.7567
0.1030	0.0000	43.9269
0.1040	0.0000	44.0976
0.1050	0.0000	44.2687
0.1060	0.0000	44.4403
0.1070	0.0000	44.6124
0.1080	0.0000	44.7849
0.1090	0.0000	44.9579
0.1100	0.0000	45.1313
0.1110	0.0000	45.3052
0.1120	0.0000	45.4796
0.1130	0.0000	45.6544
0.1140	0.0000	45.8298
0.1150	0.0000	46.0055
0.1160	0.0000	46.1818
0.1170	0.0000	46.3585
0.1180	0.0000	46.5356
0.1190	0.0000	46.7133
0.1200	0.0000	46.8914
0.1210	0.0000	47.0699
0.1220	0.0000	47.2490
0.1230	0.0000	47.4285
0.1240	0.0000	47.6084
0.1250	0.0000	47.7889
0.1260	0.0000	47.9698
0.1270	0.0000	48.1511
0.1280	0.0000	48.3329
0.1290	0.0000	48.5152
0.1300	0.0000	48.6980
0.1310	0.0000	48.8812
0.1320	0.0000	49.0649
0.1330	0.0000	49.2490
0.1340	0.0000	49.4336
0.1350	0.0000	49.6187
0.1360	0.0000	49.8042
0.1370	0.0000	49.9902
0.1380	0.0000	50.1767
0.1390	0.0000	50.3637
0.1400	0.0000	50.5511
0.1410	0.0000	50.7389
0.1420	0.0000	50.9273
0.1430	0.0000	51.1161
0.1440	0.0000	51.3053
0.1450	0.0000	51.4950
0.1460	0.0000	51.6852
0.1470	0.0000	51.8759
0.1480	0.0000	52.0670
0.1490	0.0000	52.2586
0.1500	0.0000	52.4507
0.1510	0.0000	52.6432
0.1520	0.0000	52.8362
0.1530	0.0000	53.0296
0.1540	0.0000	53.2235
0.1550	0.0000	53.4179
0.1560	0.0000	53.6127
0.1570	0.0000	53.8080
0.1580	0.0000	54.0038
0.1590	0.0000	54.2001
0.1600	0.0000	54.3968
0.1610	0.0000	54.5939
0.1620	0.0000	54.7916
0.1630	0.0000	54.9897
0.1640	0.0000	55.1882
0.1650	0.0000	55.3873
0.1660	0.0000	56.0347
0.1670	0.0000	55.5634
0.1680	0.0000	55.0963
0.1690	0.0000	54.6333
0.1700	0.0000	54.1746
0.1710	0.0000	53.7201
0.1720	0.0000	53.2698
0.1730	0.0000	52.8236
0.1740	0.0000	52.3817
0.1750	0.0000	51.9439
0.1760	0.0000	51.5104
0.1770	0.0000	51.0810
0.1780	0.0000	50.6559
0.1790	0.0000	50.2349
0.1800	0.0000	49.8182
0.1810	0.0000	49.4056
0.1820	0.0000	48.9972
0.1830	0.0000	48.5931
0.1840	0.0000	48.1931
0.1850	0.0000	47.7973
0.1860	0.0000	47.4057
0.1870	0.0000	47.0183
0.1880	0.0000	46.6351
0.1890	0.0000	46.2561
0.1900	0.0000	45.8813
0.1910	0.0000	45.5107
0.1920	0.0000	45.1443
0.1930	0.0000	44.7821
0.1940	0.0000	44.4240
0.1950	0.0000	44.0702
0.1960	0.0000	43.7206
0.1970	0.0000	43.3751
0.1980	0.0000	43.0339
0.1990	0.0000	42.6969
0.2000	0.0000	42.3640
0.2010	0.0000	42.0354
0.2020	0.0000	41.7109
0.2030	0.0000	41.3906
0.2040	0.0000	41.0746
0.2050	0.0000	40.7627
0.2060	0.0000	40.4550
0.2070	0.0000	40.1516
0.2080	0.0000	39.8523
0.2090	0.0000	39.5572
0.2100	0.0000	39.2663
0.2110	0.0000	38.9796
0.2120	0.0000	38.6971
0.2130	0.0000	38.4188
0.2140	0.0000	38.1447
0.2150	0.0000	37.8748
0.2160	0.0000	37.6091
0.2170	0.0000	37.3476
0.2180	0.0000	37.0902
0.2190	0.0000	36.8371
0.2200	0.0000	36.5882
0.2210	0.0000	36.3434
0.2220	0.0000	36.1029
0.2230	0.0000	35.8666
0.2240	0.0000	35.6344
0.2250	0.0000	35.4065
0.2260	0.0000	35.1827
0.2270	0.0000	34.9631
0.2280	0.0000	34.7478
0.2290	0.0000	34.5366
0.2300	0.0000	34.3296
0.2310	0.0000	34.1269
0.2320	0.0000	33.9283
0.2330	0.0000	33.7339
0.2340	0.0000	33.5437
0.2350	0.0000	33.3577
0.2360	0.0000	33.1759
0.2370	0.0000	32.9983
0.2380	0.0000	32.8249
0.2390	0.0000	32.6557
0.2400	0.0000	32.4907
0.2410	0.0000	32.3298
0.2420	0.0000	32.1732
0.2430	0.0000	32.0208
0.2440	0.0000	31.8726
0.2450	0.0000	31.7285
0.2460	0.0000	31.5887
0.2470	0.0000	31.4530
0.2480	0.0000	31.3216
0.2490	0.0000	31.1943
0.2500	0.0000	31.0713
0.2510	0.0000	30.9524
0.2520	0.0000	30.8377
0.2530	0.0000	30.7273
0.2540	0.0000	30.6210
0.2550	0.0000	30.5189
0.2560	0.0000	30.4210
0.2570	0.0000	30.3274
0.2580	0.0000	30.2379
0.2590	0.0000	30.1526
0.2600	0.0000	30.0715
0.2610	0.0000	29.9946
0.2620	0.0000	29.9219
0.2630	0.0000	29.8533
0.2640	0.0000	29.7890
0.2650	0.0000	29.7289
0.2660	0.0000	29.6730
0.2670	0.0000	29.6212
0.2680	0.0000	29.5737
0.2690	0.0000	29.5304
0.2700	0.0000	29.4912
0.2710	0.0000	29.4563
0.2720	0.0000	29.4255
0.2730	0.0000	29.3990
0.2740	0.0000	29.3766
0.2750	0.0000	29.3585
0.2760	0.0000	29.3445
0.2770	0.0000	29.3347
0.2780	0.0000	29.3291
0.2790	0.0000	29.3278
0.2800	0.0000	29.3306
0.2810	0.0000	29.3376
0.2820	0.0000	29.3488
0.2830	0.0000	29.3642
0.2840	0.0000	29.3838
0.2850	0.0000	29.4076
0.2860	0.0000	29.4356
0.2870	0.0000	29.4678
0.2880	0.0000	29.5042
0.2890	0.0000	29.5447
0.2900	0.0000	29.5895
0.2910	0.0000	29.6385
0.2920	0.0000	29.6916
0.2930	0.0000	29.7490
0.2940	0.0000	29.8106
0.2950	0.0000	29.8763
0.2960	0.0000	29.9463
0.2970	0.0000	30.0204
0.2980	0.0000	30.0987
0.2990	0.0000	30.1813
0.3000	0.0000	30.2680
0.3010	0.0000	30.3589
0.3020	0.0000	30.4541
0.3030	0.0000	30.5534
0.3040	0.0000	30.6569
0.3050	0.0000	30.7646
0.3060	0.0000	30.8765
0.3070	0.0000	30.9926
0.3080	0.0000	31.1129
0.3090	0.0000	31.2374
0.3100	0.0000	31.3661
0.3110	0.0000	31.4990
0.3120	0.0000	31.6361
0.3130	0.0000	31.7773
0.3140	0.0000	31.9228
0.3150	0.0000	32.0725
0.3160	0.0000	32.2264
0.3170	0.0000	32.3844
